<svg xmlns="http://www.w3.org/2000/svg" viewBox="0 0 32 32">
    <defs/>
    <rect width="100%" height="100%" fill="none"/>
    <path fill="#2b87da" d="M16 30.1H2.6c-1.2 0-1.9-.8-2-1.5 0-.1-.1-.3-.1-.5V3.5c0-.3 0-.6.1-.8.2-1 1-1.6 2-1.6h26.8c.3 0 .5 0 .8.1.7.2 1.1.7 1.3 1.4.1.3.1.5.1.8v24.7c0 1-.6 1.7-1.6 1.9h-.7c-4.5.1-8.9.1-13.3.1zm-5.8-15.4H2.5v5.9h7.7v-5.9zm1.9 5.9h7.5c.1 0 .2 0 .2-.2v-5.8h-7.5c-.2 0-.2.1-.2.2v5.8zm17.4 0v-5.9h-7.7v5.9h7.7zm-27-7.9h7.7V6.9H2.5v5.8zm9.6 0h7.5c.2 0 .2 0 .2-.2V7.1c0-.2 0-.2-.2-.2h-7.3c-.2 0-.2 0-.2.2v5.6zm17.4-5.8h-7.7v5.8h7.7V6.9zm-27 15.5v5.8h7.7v-5.8H2.5zm17.3 0h-7.5c-.2 0-.2 0-.2.2v5.6h7.5c.2 0 .2 0 .2-.2V22.4zm9.7 5.8v-5.8h-7.7v5.8h7.7z"/>
</svg>