<svg id="Layer_3" data-name="Layer 3" xmlns="http://www.w3.org/2000/svg" viewBox="0 0 40 40"><defs><style>.cls-1{fill:#3db730;}.cls-2{fill:#fff;}</style></defs><title>Tien-icon</title><rect class="cls-1" x="0.5" y="0.5" width="39" height="39" rx="2.44" ry="2.44"/><path class="cls-1" d="M37.06,1A1.94,1.94,0,0,1,39,2.94V37.06A1.94,1.94,0,0,1,37.06,39H2.94A1.94,1.94,0,0,1,1,37.06V2.94A1.94,1.94,0,0,1,2.94,1H37.06m0-1H2.94A2.93,2.93,0,0,0,0,2.94V37.06A2.93,2.93,0,0,0,2.94,40H37.06A2.93,2.93,0,0,0,40,37.06V2.94A2.93,2.93,0,0,0,37.06,0Z"/><g id="X"><rect class="cls-2" x="4.38" y="18.27" width="30.62" height="4.08" rx="2" ry="2"/><rect class="cls-2" x="17.65" y="5" width="4.08" height="30.62" rx="2" ry="2"/></g></svg>