<svg xmlns="http://www.w3.org/2000/svg" width="32" height="32">
<defs/>
<rect width="100%" height="100%" fill="none"/>
<g class="currentLayer">
    <g fill="#198fd9" class="selected">
        <path d="M31.4 4.5c-.1.2-.2.5-.3.7-.6 1.8-1.3 3.5-1.9 5.3-.4-.5-.8-.9-1.2-1.4-.3.3-.7.5-1 .8-1.3 1-2.5 2.1-3.8 3.1-1.4 1.1-2.8 2.3-4.1 3.4l-1.8 1.5h-.2c-1.4-.7-2.8-1.5-4.2-2.2-.1-.1-.2-.1-.4 0-2 1.2-4.1 2.3-6.1 3.5-1.5.9-3.1 1.8-4.6 2.6 0 0-.1 0-.1.1-.2-.3-.4-.7-.6-1-.3-.4-.5-.9-.8-1.3.5-.3 1.1-.6 1.6-.9 1.7-.9 3.3-1.9 5-2.8 1.6-.9 3.2-1.8 4.8-2.8.3-.2.6-.3.8-.5h.2c1.3.7 2.6 1.4 4 2.1h.2C19 13 21 11.3 23.1 9.6l3-2.4.1-.1c-.4-.5-.9-1-1.3-1.5.4-.1.8-.2 1.2-.2 1-.2 2.1-.4 3.1-.6.7-.1 1.4-.3 2.1-.4 0 0 .1 0 .1.1 0-.1 0-.1 0 0zM27.9 12c.3.4.6.7.9 1 .4.4.7.8 1.1 1.2 0 .1.1.1.1.2v12.4c0 .5-.3.8-.8.8h-3.7c-.5 0-.9-.4-.9-.9v-4.5-7.5c0-.1 0-.2.1-.3 1.2-.7 2.2-1.6 3.2-2.4zM22.6 16.4V26.8c0 .6-.4.9-.8.9h-3.7c-.4 0-.7-.4-.7-.8v-6.2c1.6-1.4 3.4-2.8 5.2-4.3z"/>
        <path d="M15.1 23.3v3.6c0 .5-.3.9-.8.9h-3.7c-.4 0-.8-.4-.8-.8v-3.8-3.1c0-.1 0-.2.2-.2.9-.5 1.7-1 2.6-1.5.1-.1.2-.1.3 0 .7.4 1.4.7 2.1 1.1.1.1.1.1.1.2v3.6zM7.7 21.1c0 .1 0 .1 0 0v5.7c0 .4-.2.7-.6.9H3.4c-.5 0-.8-.2-.9-.6v-.2-2.7c0-.1 0-.2.1-.2 1.6-.9 3.3-1.9 5.1-2.9-.1.1-.1.1 0 0z"/>
    </g>
</g>
</svg>