<svg id="Layer_1" data-name="Layer 1" xmlns="http://www.w3.org/2000/svg" viewBox="0 0 36 36"><defs><style>.cls-1{fill:#fff;}.cls-2{fill:#546478;}</style></defs><title>nguoc</title><rect class="cls-1" width="36" height="36"/><polygon class="cls-2" points="31 1 20 1 20 5 31 5 31 12 35 12 35 5 35 1 31 1"/><polygon class="cls-2" points="31 31 20 31 20 35 31 35 35 35 35 31 35 24 31 24 31 31"/><polygon class="cls-2" points="1 1 1 5 1 12 5 12 5 5 16 5 16 1 5 1 1 1"/><polygon class="cls-2" points="5 24 1 24 1 31 1 35 5 35 16 35 16 31 5 31 5 24"/><rect class="cls-2" x="7" y="14.77" width="9" height="5"/><polygon class="cls-2" points="1 17.27 4.5 14.97 8 12.68 8 17.27 8 21.85 4.5 19.56 1 17.27"/><rect class="cls-2" x="20" y="14.77" width="9" height="5"/><polygon class="cls-2" points="35 17.27 31.5 19.56 28 21.85 28 17.27 28 12.68 31.5 14.97 35 17.27"/></svg>