<svg id="Layer_1" data-name="Layer 1" xmlns="http://www.w3.org/2000/svg" viewBox="0 0 36 36"><defs><style>.cls-1{fill:#546478;}</style></defs><title>Artboard 1</title><rect class="cls-1" x="1" y="15.49" width="9.27" height="5.15" transform="translate(11.27 36.13) rotate(180)"/><polygon class="cls-1" points="1 1.07 1 4.16 1 10.34 4.09 10.34 4.09 4.16 15.42 4.16 15.42 1.07 4.09 1.07 1 1.07"/><polygon class="cls-1" points="31.91 1.07 20.58 1.07 20.58 4.16 31.91 4.16 31.91 11.37 35 11.37 35 4.16 35 1.07 31.91 1.07"/><polygon class="cls-1" points="4.09 25.79 1 25.79 1 31.98 1 35.07 4.09 35.07 15.42 35.07 15.42 31.98 4.09 31.98 4.09 25.79"/><polygon class="cls-1" points="31.91 31.98 20.58 31.98 20.58 35.07 31.91 35.07 35 35.07 35 31.98 35 24.76 31.91 24.76 31.91 31.98"/><polygon class="cls-1" points="15.09 18.07 10.62 20.65 6.15 23.23 6.15 18.07 6.15 12.9 10.62 15.49 15.09 18.07"/><rect class="cls-1" x="25.73" y="15.49" width="9.27" height="5.15"/><polygon class="cls-1" points="20.58 18.07 25.05 15.49 29.52 12.9 29.52 18.07 29.52 23.23 25.05 20.65 20.58 18.07"/></svg>