<svg id="Group_319" data-name="Group 319" xmlns="http://www.w3.org/2000/svg" width="300" height="300" viewBox="0 0 300 300">
  <g id="Group_49" data-name="Group 49" transform="translate(0)">
    <path id="Path_31" data-name="Path 31" d="M929.339,450.52c0-21.312-.3-42.628.085-63.933.363-20.311,18.279-38.013,38.667-38.139,41.769-.255,83.54-.032,125.313-.143,20.2-.054,40.526,16.647,40.477,41.594-.079,40.493.146,80.986-.085,121.478-.137,24.193-17.918,41.52-42.107,41.556q-60.261.092-120.518,0c-21.4-.034-38.234-14.136-41.486-34.664a55.664,55.664,0,0,1-.436-8.606q-.053-29.57-.021-59.14Zm177.183.2q0-29.881,0-59.764c-.008-10.213-5.343-15.557-15.614-15.562q-59.445-.027-118.888,0c-10.212.006-15.6,5.376-15.6,15.615q-.038,59.6,0,119.208c.008,9.972,5.458,15.329,15.5,15.332q59.606.016,119.209,0c10.046,0,15.392-5.362,15.4-15.385Q1106.538,480.443,1106.521,450.721Z" transform="translate(-833.902 -252.978)" fill="#fff"/>
    <path id="Path_32" data-name="Path 32" d="M779.718,301.356c0-20.248-.07-40.5.022-60.744.081-17.688,8.2-30.7,24.094-38.17a42.549,42.549,0,0,1,17.294-3.664c40.6-.3,81.2-.26,121.808-.124,23.593.079,40.878,17.321,41.376,40.9.1,4.793.129,9.6-.059,14.384a13.508,13.508,0,0,1-27-.048c-.179-4.256-.04-8.524-.095-12.786-.121-9.66-5.518-15.077-15.124-15.082q-59.946-.03-119.89,0c-9.665.005-15.08,5.428-15.084,15.059q-.021,59.945,0,119.889c0,9.5,5.542,15.084,15.028,15.2,4.262.053,8.531-.1,12.785.094a13.474,13.474,0,0,1-.544,26.941c-6.492.04-13.1.55-19.461-.445-21.364-3.338-35.045-19.792-35.135-41.619C779.654,341.213,779.718,321.284,779.718,301.356Z" transform="translate(-779.693 -198.549)" fill="#fff"/>
  </g>
</svg>
