<svg xmlns="http://www.w3.org/2000/svg" width="300.985" height="300.992" viewBox="0 0 300.985 300.992">
  <g id="Group_282" data-name="Group 282" transform="translate(-1802.537 -390.468)">
    <path id="Path_72" data-name="Path 72" d="M929.338,450.86c0-21.382-.3-42.77.086-64.145.365-20.378,18.341-38.141,38.795-38.266,41.909-.256,83.819-.032,125.731-.144,20.265-.054,40.662,16.7,40.612,41.733-.082,40.627.144,81.255-.085,121.883-.139,24.272-17.98,41.657-42.249,41.693q-60.46.092-120.92,0c-21.473-.034-38.359-14.183-41.625-34.78a55.9,55.9,0,0,1-.436-8.634q-.057-29.67-.018-59.338Zm177.773.2q0-29.982,0-59.963c-.007-10.246-5.358-15.608-15.663-15.613q-59.644-.028-119.286,0c-10.246.006-15.646,5.395-15.652,15.668q-.042,59.8,0,119.6c.008,10.005,5.477,15.38,15.55,15.383q59.8.015,119.605,0c10.078,0,15.441-5.379,15.448-15.437Q1107.128,480.885,1107.111,451.062Z" transform="translate(968.443 137.306)" fill="#8895b6" stroke="rgba(0,0,0,0)" stroke-miterlimit="10" stroke-width="1"/>
    <path id="Path_74" data-name="Path 74" d="M779.72,301.7c0-20.316-.071-40.631.021-60.947.081-17.747,8.228-30.8,24.176-38.3a42.689,42.689,0,0,1,17.353-3.676c40.734-.306,81.475-.26,122.211-.124,23.672.079,41.017,17.378,41.516,41.031.1,4.809.131,9.628-.058,14.432a13.553,13.553,0,0,1-27.088-.049c-.182-4.269-.043-8.552-.1-12.827-.122-9.693-5.537-15.128-15.175-15.133q-60.144-.03-120.288,0c-9.7.006-15.133,5.446-15.136,15.109q-.022,60.145,0,120.289c0,9.532,5.56,15.134,15.076,15.254,4.277.054,8.562-.1,12.828.095a13.519,13.519,0,0,1-.546,27.031c-6.515.04-13.148.551-19.525-.446-21.436-3.35-35.163-19.859-35.254-41.758C779.654,341.688,779.719,321.693,779.72,301.7Z" transform="translate(1023.333 192.415)" fill="#8895b6" stroke="rgba(0,0,0,0)" stroke-miterlimit="10" stroke-width="1"/>
  </g>
</svg>
