<svg xmlns="http://www.w3.org/2000/svg" width="393.846" height="475.695" viewBox="0 0 393.846 475.695">
  <g id="Group_329" data-name="Group 329" transform="translate(-810.85 -2006)">
    <path id="plus" d="M122.848,0A122.848,122.848,0,1,0,245.7,122.848,122.984,122.984,0,0,0,122.848,0Zm53.746,133.084H133.084v43.509a10.237,10.237,0,0,1-20.473,0V133.084H69.1a10.237,10.237,0,1,1,0-20.473h43.509V69.1a10.237,10.237,0,1,1,20.473,0v43.509h43.509a10.237,10.237,0,1,1,0,20.473Zm0,0" transform="translate(959 2236)" fill="#0073ab"/>
    <g id="data" transform="translate(810.85 2006)">
      <path id="Path_160" data-name="Path 160" d="M129.475,57.375c-78.169,0-121.665-17.7-121.665-26.76S51.306,3.75,129.475,3.75,251.14,21.451,251.14,30.615,208.163,57.375,129.475,57.375Z" transform="translate(0.149 4.059)" fill="#0073ab"/>
      <path id="Path_161" data-name="Path 161" d="M136.534,18.619c62.3,0,100.61,11.35,111.72,19.055-11.11,7.6-49.526,18.951-111.72,18.951S35.924,45.275,24.815,37.674c11.11-7.705,49.526-19.055,111.72-19.055m0-15.619C65,3,7.06,18.515,7.06,37.674S65,72.244,136.534,72.244s129.474-15.515,129.474-34.57S208.072,3,136.534,3Z" transform="translate(-6.91 -3)" fill="#0073ab"/>
      <path id="Path_162" data-name="Path 162" d="M11.005,10.02c22.323,7.809,130.409,54.25,250.85.1a3.009,3.009,0,0,1,4.153,2.083V75.724a6.049,6.049,0,0,1-1.869,5.206s-122.726,56.228-255.107.417a2.914,2.914,0,0,1-1.973-2.6V12.207a2.8,2.8,0,0,1,3.945-2.187Z" transform="translate(-6.91 60.639)" fill="#0073ab" stroke="#0073ab" stroke-miterlimit="10" stroke-width="0.3"/>
      <path id="Path_163" data-name="Path 163" d="M11.005,19.02c22.323,7.809,130.409,54.25,250.85.1a3.009,3.009,0,0,1,4.153,2.083V84.724a6.049,6.049,0,0,1-1.869,5.206s-122.726,56.228-255.107.416a2.914,2.914,0,0,1-1.973-2.6V21.207a2.8,2.8,0,0,1,3.945-2.187Z" transform="translate(-6.91 145.297)" fill="#0073ab" stroke="#0073ab" stroke-miterlimit="10" stroke-width="0.3"/>
      <path id="Path_164" data-name="Path 164" d="M11.005,28.02c22.323,7.809,130.409,54.25,250.85.1a3.009,3.009,0,0,1,4.153,2.083V93.724a6.049,6.049,0,0,1-1.869,5.206s-122.726,56.228-255.107.417a2.914,2.914,0,0,1-1.973-2.6V30.207a2.8,2.8,0,0,1,3.945-2.187Z" transform="translate(-6.91 229.955)" fill="#0073ab" stroke="#0073ab" stroke-miterlimit="10" stroke-width="0.3"/>
    </g>
  </g>
</svg>
