<svg id="Group_274" data-name="Group 274" xmlns="http://www.w3.org/2000/svg" width="282" height="326" viewBox="0 0 282 326">
  <g id="Group_45" data-name="Group 45" transform="translate(0)">
    <path id="Path_22" data-name="Path 22" d="M1163.185,498.994q0,48.7-.012,97.409c-.036,23.056-13.374,36.323-36.5,36.334q-82.906.042-165.81,0c-22.622-.014-36.144-13.394-36.163-35.9q-.078-99.342,0-198.686a30.391,30.391,0,0,1,.441-6.9c1.294-5.466,5.044-8.466,10.576-8.267,5.857.212,9.536,3.52,10.258,9.521a58.391,58.391,0,0,1,.1,6.953q.007,97.8.008,195.594c0,12.723,3.281,16.039,15.879,16.042q82.133.016,164.268,0c12.1,0,15.552-3.464,15.555-15.6q.02-98.186.01-196.369a49.566,49.566,0,0,1,.132-6.947c.8-5.594,4.277-8.813,9.783-9.187,5.539-.377,9.423,2.45,10.876,7.857a29.955,29.955,0,0,1,.579,7.652Q1163.214,448.741,1163.185,498.994Z" transform="translate(-902.93 -306.759)" fill="#fff"/>
    <path id="Path_23" data-name="Path 23" d="M997.628,377.087c0-10.168-.05-19.651.013-29.131.072-10.854,3.564-14.427,14.226-14.446q39.731-.065,79.459,0c10.649.017,14.18,3.623,14.252,14.436.063,9.481.014,18.961.014,29.14,16.291,0,31.678,0,47.068,0,9.258,0,18.516-.142,27.77.054,7.473.159,12.416,4.882,12.17,11.118-.232,5.925-5.071,10.189-12.157,10.238-15.944.113-31.888.039-47.83.039H928.177c-1.8,0-3.6.048-5.4-.012-7.087-.236-11.918-4.33-12.159-10.265-.254-6.231,4.688-11.048,12.162-11.111,19.542-.162,39.086-.06,58.631-.061C986.515,377.087,991.617,377.087,997.628,377.087Zm21.488-.507h64.862V355.774h-64.862Z" transform="translate(-910.61 -333.478)" fill="#fff"/>
    <path id="Path_24" data-name="Path 24" d="M1016.2,484.314q0,36.264-.013,72.527c-.016,8.619-3.654,13.408-10.136,13.66-6.726.263-10.832-4.818-10.838-13.722q-.047-73.3.006-146.6c.007-8.545,3.834-13.205,10.5-13.193s10.439,4.673,10.459,13.257Q1016.258,447.278,1016.2,484.314Z" transform="translate(-864.696 -298.979)" fill="#fff"/>
    <path id="Path_25" data-name="Path 25" d="M981.131,476.685c0,17.246.048,34.49-.024,51.736-.029,7.833-3.995,12.448-10.437,12.517-6.416.068-10.654-4.538-10.677-12.4q-.151-52.506,0-105.015c.024-8.087,3.942-12.38,10.561-12.4,6.726-.016,10.52,4.247,10.555,12.273C981.182,441.164,981.131,458.925,981.131,476.685Z" transform="translate(-883.845 -291.241)" fill="#fff"/>
    <path id="Path_26" data-name="Path 26" d="M1051.519,476.243c0,17.5.153,35.006-.063,52.507-.122,9.964-8.567,15.613-15.85,10.464a13.536,13.536,0,0,1-5.035-9.48c-.353-35.775-.213-71.553-.238-107.332-.006-6.789,3.232-10.715,10.02-11.22,6.479-.483,10.967,3.722,11.061,11.007.238,18.015.078,36.035.078,54.052Z" transform="translate(-845.624 -291.233)" fill="#fff"/>
  </g>
</svg>
