<svg id="Group_274" data-name="Group 274" xmlns="http://www.w3.org/2000/svg" width="240" height="278" viewBox="0 0 240 278">
  <g id="Group_45" data-name="Group 45" transform="translate(0)">
    <path id="Path_22" data-name="Path 22" d="M1127.756,481.456q0,41.343-.011,82.688c-.03,19.572-11.387,30.834-31.079,30.843q-70.592.036-141.181,0c-19.263-.012-30.775-11.37-30.792-30.477q-.066-84.328,0-168.66a25.752,25.752,0,0,1,.375-5.86c1.1-4.641,4.295-7.187,9.005-7.018,4.986.18,8.12,2.988,8.735,8.082a49.481,49.481,0,0,1,.087,5.9q.006,83.017.007,166.034c0,10.8,2.793,13.614,13.52,13.618q69.934.013,139.868,0c10.3,0,13.243-2.94,13.244-13.24q.018-83.347.009-166.692a42.051,42.051,0,0,1,.112-5.9c.679-4.748,3.642-7.48,8.329-7.8,4.717-.32,8.024,2.08,9.261,6.67a25.378,25.378,0,0,1,.493,6.5Q1127.78,438.8,1127.756,481.456Z" transform="translate(-906.216 -317.005)" fill="#707070"/>
    <path id="Path_23" data-name="Path 23" d="M984.669,370.5c0-8.631-.043-16.681.011-24.728.061-9.213,3.034-12.247,12.107-12.263q33.814-.056,67.625,0c9.063.014,12.069,3.075,12.129,12.254.054,8.048.013,16.1.013,24.737,13.865,0,26.96,0,40.057,0,7.88,0,15.759-.121,23.635.046,6.36.135,10.567,4.144,10.358,9.438-.2,5.03-4.317,8.649-10.347,8.691-13.568.1-27.139.033-40.707.033H925.561c-1.53,0-3.065.041-4.594-.01-6.032-.2-10.144-3.675-10.348-8.713-.216-5.29,3.989-9.378,10.351-9.431,16.63-.138,33.264-.051,49.9-.052C975.21,370.5,979.552,370.5,984.669,370.5Zm18.287-.43h55.2V352.4h-55.2Z" transform="translate(-910.611 -333.478)" fill="#707070"/>
    <path id="Path_24" data-name="Path 24" d="M1013.021,471.116q0,30.784-.011,61.566c-.014,7.316-3.1,11.382-8.6,11.6-5.709.223-9.2-4.09-9.2-11.648q-.04-62.223,0-124.445c.006-7.254,3.255-11.209,8.917-11.2s8.862,3.967,8.879,11.253Q1013.073,439.678,1013.021,471.116Z" transform="translate(-884.107 -312.976)" fill="#707070"/>
    <path id="Path_25" data-name="Path 25" d="M977.926,466.778c0,14.64.04,29.278-.021,43.917-.025,6.649-3.392,10.567-8.859,10.625-5.446.058-9.044-3.852-9.063-10.523q-.129-44.572,0-89.144c.021-6.865,3.346-10.509,8.966-10.522,5.709-.013,8.929,3.606,8.96,10.418C977.969,436.625,977.926,451.7,977.926,466.778Z" transform="translate(-895.162 -308.585)" fill="#707070"/>
    <path id="Path_26" data-name="Path 26" d="M1048.316,466.4c0,14.857.13,29.716-.055,44.572-.1,8.458-7.272,13.254-13.454,8.883a11.489,11.489,0,0,1-4.274-8.047c-.3-30.368-.181-60.739-.2-91.11,0-5.763,2.744-9.1,8.507-9.524,5.5-.41,9.31,3.159,9.389,9.344.2,15.292.066,30.588.066,45.883Z" transform="translate(-873.099 -308.58)" fill="#707070"/>
  </g>
</svg>
