<svg xmlns="http://www.w3.org/2000/svg" width="302" height="280" viewBox="0 0 302 280">
  <g id="Group_328" data-name="Group 328" transform="translate(-1857 -1269)">
    <rect id="Rectangle_253" data-name="Rectangle 253" width="302" height="280" rx="15" transform="translate(1857 1269)" fill="#f4f6fd"/>
    <g id="edit" transform="translate(1580.162 1265)">
      <g id="Group_327" data-name="Group 327" transform="translate(363.838 77)">
        <g id="Group_326" data-name="Group 326" transform="translate(0 0)">
          <path id="Path_140" data-name="Path 140" d="M28.752,104.066H30.5l35.992-7.383a3.627,3.627,0,0,0,1.865-.879l60.98-57.482a21.52,21.52,0,0,0,6.9-15.821,22.187,22.187,0,0,0-6.9-16A24.247,24.247,0,0,0,112.554,0,23.641,23.641,0,0,0,95.77,6.681L34.976,64.163a3.16,3.16,0,0,0-1.119,1.582L26.025,99.671a3.727,3.727,0,0,0,1.119,3.34C27.832,103.674,27.768,104.053,28.752,104.066Zm83.8-97.033c8.96,0,16.225,6.846,16.225,15.292q0,.088,0,.177a14.345,14.345,0,0,1-4.662,10.723l-22.938-21.8A16.553,16.553,0,0,1,112.554,7.033Zm-16.6,9.492,22.938,21.621L65.746,88.069,42.808,66.623ZM39.825,73.655l18.462,17.4L34.6,95.98Z" transform="translate(-19.968 0)" fill="#2b3551"/>
          <path id="Path_141" data-name="Path 141" d="M133.2,365.717H11.472c-2.007,0-3.634,2.686-3.634,6s1.627,6,3.634,6H133.2c2.007,0,3.634-2.686,3.634-6S135.211,365.717,133.2,365.717Z" transform="translate(-7.838 -244.996)" fill="#2b3551"/>
        </g>
      </g>
    </g>
  </g>
</svg>
