<svg id="Group_47" data-name="Group 47" xmlns="http://www.w3.org/2000/svg" width="230" height="230" viewBox="0 0 230 230">
  <path id="Path_27" data-name="Path 27" d="M921.214,556.585c-11.913-3.01-21.917-8.959-27.21-20.373a41.533,41.533,0,0,1-3.77-16.675q-.5-74.165-.276-148.336c.036-20.615,15.4-36.762,35.806-36.978,38.887-.411,77.779-.2,116.668-.234a8.761,8.761,0,0,1,1.585.317c-6.859,7.116-13.535,14.211-20.475,21.036-.932.918-3.209.634-4.864.637-27.634.053-55.267.019-82.9.1-14.555.045-23.8,9.551-23.79,24.115q.026,65.218-.011,130.437c-.007,14.028,9.158,23.517,23.187,23.535q66.012.081,132.026-.042c13.948-.025,22.963-9.148,22.986-23.039.048-27.793-.032-55.585.2-83.376a12.41,12.41,0,0,1,3.039-7.516c5.8-6.418,12.06-12.421,18.891-19.343.172,2.5.355,3.925.355,5.345-.022,35.465-.574,70.938.084,106.391.41,22.157-8.738,37.288-30.787,44Z" transform="translate(-889.914 -326.585)" fill="#fff"/>
  <path id="Path_28" data-name="Path 28" d="M1116.174,360.623c-4.381,5.194-8.766,10.387-12.976,15.375l-37.468-36.146c4.151-3.659,7.656-6.91,11.337-9.95,4.788-3.96,9.3-4.239,13.8.051,8.659,8.267,16.9,16.973,25.311,25.5Z" transform="translate(-886.174 -326.832)" fill="#fff"/>
  <path id="Path_29" data-name="Path 29" d="M1020.513,459.521q-17.726-18.063-34.513-35.17,38.556-38.954,77.734-78.535l34.258,34.712Z" transform="translate(-888.938 -326.174)" fill="#fff"/>
  <path id="Path_30" data-name="Path 30" d="M965.777,476.188c4.883-16.976,9.462-32.9,14.152-49.211l33.732,35.483C999.132,466.626,983.074,471.23,965.777,476.188Z" transform="translate(-888.285 -324.743)" fill="#fff"/>
</svg>
