<svg xmlns="http://www.w3.org/2000/svg" width="301" height="309" viewBox="0 0 301 309">
  <g id="edit" transform="translate(-363.838 -77)">
    <g id="Group_327" data-name="Group 327" transform="translate(363.838 77)">
      <g id="Group_326" data-name="Group 326" transform="translate(0 0)">
        <path id="Path_140" data-name="Path 140" d="M34.8,242.82h1.741l83.981-17.227a8.464,8.464,0,0,0,4.351-2.051L267.161,89.418a50.214,50.214,0,0,0,16.1-36.915,51.771,51.771,0,0,0-16.1-37.325A56.576,56.576,0,0,0,228,0a55.162,55.162,0,0,0-39.162,15.586L46.984,149.712a7.373,7.373,0,0,0-2.611,3.691L26.1,232.566a8.7,8.7,0,0,0,2.611,7.794A8.966,8.966,0,0,0,34.8,242.82ZM228,16.409c20.908,0,37.857,15.974,37.859,35.682q0,.206,0,.412a33.472,33.472,0,0,1-10.878,25.02L201.457,26.662A38.625,38.625,0,0,1,228,16.409ZM189.272,38.558l53.521,50.45L118.781,205.495,65.26,155.454ZM58.3,171.862l43.078,40.606L46.114,223.953Z" transform="translate(-11.966 0)" fill="#fff"/>
        <path id="Path_141" data-name="Path 141" d="M300.359,365.717H16.317c-4.683,0-8.479,6.115-8.479,13.659s3.8,13.659,8.479,13.659H300.359c4.683,0,8.479-6.115,8.479-13.659S305.042,365.717,300.359,365.717Z" transform="translate(-7.838 -84.035)" fill="#fff"/>
      </g>
    </g>
  </g>
</svg>
