<svg xmlns="http://www.w3.org/2000/svg" width="300" height="300" viewBox="0 0 300 300">
  <g id="cancel-mark" transform="translate(0 -0.005)">
    <path id="Path_134" data-name="Path 134" d="M8.512,258.349l31.148,31.6a29.571,29.571,0,0,0,41.816.3l68.007-67.05,67.021,68a29.569,29.569,0,0,0,41.82.3l31.581-31.128a29.574,29.574,0,0,0,.3-41.829l-67.025-68L291.191,83.5a29.575,29.575,0,0,0,.287-41.829l-31.133-31.6a29.582,29.582,0,0,0-41.819-.3l-68.018,67.05-67.022-68a29.587,29.587,0,0,0-41.823-.3L10.086,39.645a29.578,29.578,0,0,0-.3,41.829l67.028,68-68,67.058A29.56,29.56,0,0,0,8.512,258.349Z" transform="translate(0 0)" fill="#fff"/>
  </g>
</svg>
