<svg xmlns="http://www.w3.org/2000/svg" width="301" height="282" viewBox="0 0 301 282">
  <g id="Group_239" data-name="Group 239" transform="translate(0.312 0)">
    <rect id="Rectangle_252" data-name="Rectangle 252" width="301" height="282" rx="15" transform="translate(-0.312 0)" fill="#f4f6fd"/>
    <g id="Group_163" data-name="Group 163" transform="translate(87.446 80.527)">
      <g id="Group_49" data-name="Group 49" transform="translate(0)">
        <path id="Path_31" data-name="Path 31" d="M929.272,391.029c0-8.908-.123-17.818.036-26.722a16.683,16.683,0,0,1,16.161-15.941c17.459-.107,34.919-.014,52.378-.06a17.17,17.17,0,0,1,16.919,17.386c-.034,16.925.06,33.85-.035,50.775-.058,10.112-7.491,17.354-17.6,17.369q-25.188.039-50.375,0c-8.945-.014-15.981-5.909-17.341-14.489a23.329,23.329,0,0,1-.182-3.6q-.022-12.36-.007-24.72Zm74.06.084q0-12.491,0-24.98c0-4.268-2.233-6.5-6.525-6.5q-24.848-.012-49.694,0c-4.268,0-6.518,2.247-6.521,6.527q-.017,24.913,0,49.826c0,4.168,2.281,6.407,6.477,6.409q24.913.006,49.827,0c4.2,0,6.433-2.241,6.436-6.431Q1003.339,403.537,1003.332,391.113Z" transform="translate(-889.257 -308.278)" fill="#2b3551" stroke="rgba(0,0,0,0)" stroke-miterlimit="10" stroke-width="1"/>
        <path id="Path_32" data-name="Path 32" d="M779.7,241.521c0-8.463-.03-16.927.009-25.39.033-7.393,3.427-12.832,10.071-15.954a17.783,17.783,0,0,1,7.228-1.532c16.97-.127,33.942-.108,50.913-.052,9.861.033,17.087,7.24,17.3,17.093.042,2,.054,4.011-.024,6.012a5.646,5.646,0,0,1-11.285-.02c-.075-1.778-.018-3.563-.04-5.344-.051-4.038-2.307-6.3-6.322-6.3q-25.056-.013-50.111,0c-4.04,0-6.3,2.269-6.305,6.294q-.01,25.056,0,50.112c0,3.971,2.316,6.3,6.281,6.355,1.782.023,3.566-.042,5.344.039a5.632,5.632,0,0,1-.228,11.261,51.018,51.018,0,0,1-8.134-.186c-8.93-1.4-14.648-8.273-14.686-17.4C779.677,258.18,779.7,249.85,779.7,241.521Z" transform="translate(-779.693 -198.55)" fill="#2b3551" stroke="rgba(0,0,0,0)" stroke-miterlimit="10" stroke-width="1"/>
      </g>
    </g>
  </g>
</svg>
