<svg xmlns="http://www.w3.org/2000/svg" width="308" height="282" viewBox="0 0 308 282">
  <g id="Group_240" data-name="Group 240" transform="translate(0 0)">
    <rect id="Rectangle_251" data-name="Rectangle 251" width="308" height="282" rx="15" transform="translate(0 0)" fill="#f4f6fd"/>
    <g id="Group_162" data-name="Group 162" transform="translate(96.86 76.436)">
      <g id="Group_47" data-name="Group 47" transform="translate(0 0)">
        <path id="Path_27" data-name="Path 27" d="M906.213,449.942c-6.2-1.568-11.412-4.668-14.17-10.614a21.651,21.651,0,0,1-1.962-8.687q-.262-38.637-.145-77.278c.019-10.739,8.021-19.152,18.647-19.264,20.25-.214,40.5-.1,60.754-.123a4.55,4.55,0,0,1,.824.165c-3.571,3.707-7.047,7.4-10.661,10.959-.486.478-1.671.33-2.533.332-14.39.028-28.78.01-43.17.053-7.578.024-12.391,4.976-12.388,12.563q.014,33.977-.006,67.953c0,7.308,4.77,12.251,12.075,12.26q34.374.042,68.752-.022c7.263-.013,11.958-4.766,11.97-12,.025-14.479-.017-28.958.1-43.436a6.453,6.453,0,0,1,1.582-3.915c3.02-3.343,6.28-6.471,9.838-10.077.09,1.3.185,2.045.185,2.785-.012,18.476-.3,36.956.043,55.426.214,11.543-4.55,19.426-16.032,22.92Z" transform="translate(-889.913 -330.162)" fill="#2b3551" stroke="rgba(0,0,0,0)" stroke-miterlimit="10" stroke-width="1"/>
        <path id="Path_28" data-name="Path 28" d="M1091.724,344.244l-6.687,7.923-19.308-18.626c2.14-1.885,3.947-3.56,5.843-5.127,2.468-2.041,4.794-2.184,7.109.026,4.463,4.26,8.709,8.746,13.044,13.139Z" transform="translate(-971.991 -326.832)" fill="#2b3551" stroke="rgba(0,0,0,0)" stroke-miterlimit="10" stroke-width="1"/>
        <path id="Path_29" data-name="Path 29" d="M1003.785,404.408,986,386.285l40.055-40.469L1043.71,363.7Z" transform="translate(-934.77 -335.694)" fill="#2b3551" stroke="rgba(0,0,0,0)" stroke-miterlimit="10" stroke-width="1"/>
        <path id="Path_30" data-name="Path 30" d="M965.779,452.335c2.516-8.747,4.875-16.952,7.293-25.358l17.381,18.284Z" transform="translate(-925.33 -373.583)" fill="#2b3551" stroke="rgba(0,0,0,0)" stroke-miterlimit="10" stroke-width="1"/>
      </g>
    </g>
  </g>
</svg>
