<svg xmlns="http://www.w3.org/2000/svg" width="302" height="280" viewBox="0 0 302 280">
  <g id="Group_238" data-name="Group 238" transform="translate(-0.35 0)">
    <rect id="Rectangle_253" data-name="Rectangle 253" width="302" height="280" rx="15" transform="translate(0.35 0)" fill="#f4f6fd"/>
    <g id="Group_164" data-name="Group 164" transform="translate(91.974 74.998)">
      <g id="Group_45" data-name="Group 45" transform="translate(0)">
        <path id="Path_22" data-name="Path 22" d="M1023.764,431.041q0,20.186-.006,40.371c-.015,9.555-5.556,15.054-15.165,15.059q-34.444.017-68.887,0c-9.4-.006-15.017-5.551-15.025-14.879q-.031-41.172,0-82.344a12.549,12.549,0,0,1,.183-2.861,4.393,4.393,0,0,1,8.657.52,24.207,24.207,0,0,1,.042,2.881q0,40.531,0,81.062c0,5.273,1.362,6.647,6.6,6.649q34.125.006,68.246,0c5.028,0,6.462-1.436,6.463-6.464q.01-40.692,0-81.384a20.421,20.421,0,0,1,.054-2.88,4.383,4.383,0,0,1,8.584-.551,12.4,12.4,0,0,1,.239,3.172Q1023.775,410.215,1023.764,431.041Z" transform="translate(-915.66 -351.244)" fill="#2b3551" stroke="rgba(0,0,0,0)" stroke-miterlimit="10" stroke-width="1"/>
        <path id="Path_23" data-name="Path 23" d="M946.751,351.551c0-4.214-.021-8.144.006-12.073.03-4.5,1.479-5.979,5.908-5.987q16.5-.027,33,0c4.421.007,5.888,1.5,5.918,5.983.026,3.929.007,7.858.007,12.077h19.546c3.844,0,7.69-.059,11.534.022,3.1.066,5.155,2.023,5.054,4.608-.1,2.456-2.106,4.223-5.049,4.243-6.622.047-13.243.016-19.865.016h-84.9c-.748,0-1.495.02-2.243-.005-2.943-.1-4.949-1.794-5.05-4.254-.1-2.583,1.949-4.579,5.052-4.6,8.117-.067,16.233-.025,24.349-.026Zm8.924-.21h26.937v-8.623H955.675Z" transform="translate(-910.611 -333.478)" fill="#2b3551" stroke="rgba(0,0,0,0)" stroke-miterlimit="10" stroke-width="1"/>
        <path id="Path_24" data-name="Path 24" d="M1003.9,433.178q0,15.03-.006,30.059c-.005,3.572-1.513,5.556-4.2,5.661-2.788.109-4.49-2-4.492-5.687q-.019-30.379,0-60.757c0-3.542,1.59-5.473,4.354-5.468s4.327,1.937,4.334,5.494Q1003.92,417.829,1003.9,433.178Z" transform="translate(-940.985 -356.286)" fill="#2b3551" stroke="rgba(0,0,0,0)" stroke-miterlimit="10" stroke-width="1"/>
        <path id="Path_25" data-name="Path 25" d="M968.709,438.3c0,7.148.021,14.294-.009,21.441-.013,3.247-1.656,5.159-4.327,5.188s-4.416-1.881-4.425-5.138q-.06-21.76,0-43.522c.01-3.352,1.634-5.131,4.378-5.137,2.788-.006,4.358,1.761,4.374,5.087C968.73,423.578,968.709,430.939,968.709,438.3Z" transform="translate(-928.319 -361.366)" fill="#2b3551" stroke="rgba(0,0,0,0)" stroke-miterlimit="10" stroke-width="1"/>
        <path id="Path_26" data-name="Path 26" d="M1039.109,438.125c0,7.253.063,14.508-.026,21.761-.051,4.129-3.552,6.471-6.57,4.337a5.6,5.6,0,0,1-2.085-3.929c-.148-14.826-.091-29.654-.1-44.482,0-2.814,1.34-4.441,4.153-4.65,2.684-.2,4.545,1.543,4.583,4.562.1,7.466.032,14.934.032,22.4Z" transform="translate(-953.604 -361.371)" fill="#2b3551" stroke="rgba(0,0,0,0)" stroke-miterlimit="10" stroke-width="1"/>
      </g>
    </g>
  </g>
</svg>
