<svg xmlns="http://www.w3.org/2000/svg" width="473.695" height="383.535" viewBox="0 0 473.695 383.535">
  <g id="Group_331" data-name="Group 331" transform="translate(-91 -1235.16)">
    <path id="Path_139" data-name="Path 139" d="M58.217,256.113h-176.7V243.968c0-8.629-7.306-15.627-16.319-15.627H-237.152c-9.012,0-16.317,7-16.317,15.627V452.827c0,14.975,12.675,27.114,28.311,27.114H58.217c15.637,0,28.313-12.14,28.313-27.114v-169.6C86.53,268.252,73.854,256.113,58.217,256.113Z" transform="translate(344.47 1006.819)" fill="#706d71"/>
    <path id="plus" d="M122.848,0A122.848,122.848,0,1,0,245.7,122.848,122.984,122.984,0,0,0,122.848,0Zm53.746,133.084H133.084v43.509a10.237,10.237,0,0,1-20.473,0V133.084H69.1a10.237,10.237,0,1,1,0-20.473h43.509V69.1a10.237,10.237,0,1,1,20.473,0v43.509h43.509a10.237,10.237,0,1,1,0,20.473Zm0,0" transform="translate(319 1373)" fill="#706d71"/>
  </g>
</svg>
