<svg xmlns="http://www.w3.org/2000/svg" width="300" height="300" viewBox="0 0 300 300">
  <g id="configuration" transform="translate(0 -0.004)">
    <g id="Group_322" data-name="Group 322" transform="translate(0 0.004)">
      <g id="Group_321" data-name="Group 321">
        <path id="Path_135" data-name="Path 135" d="M209.79,150.954a6.272,6.272,0,0,0-6.238-1.563A12.12,12.12,0,0,1,200,150a12.512,12.512,0,0,1-12.5-12.5,12.328,12.328,0,0,1,.623-3.589,6.277,6.277,0,0,0-1.575-6.208l-8.96-8.954c-8.057-8.057-22.119-8.057-30.176,0l-.537.537L75,47.412V38.5a18.781,18.781,0,0,0-9.448-16.278L28.1.824a6.273,6.273,0,0,0-7.519,1.007L1.831,20.581A6.263,6.263,0,0,0,.818,28.1L22.229,65.565A18.806,18.806,0,0,0,38.5,75h8.911l71.872,71.873-.534.534a21.344,21.344,0,0,0,0,30.183l8.96,8.954a6.257,6.257,0,0,0,6.213,1.569A12.252,12.252,0,0,1,150,200a12.119,12.119,0,0,1-.6,3.534,6.24,6.24,0,0,0,1.55,6.256l79.541,79.542a36.425,36.425,0,0,0,51.513,0l7.324-7.324a36.425,36.425,0,0,0,0-51.514Z" transform="translate(0 -0.004)" fill="#707070"/>
        <path id="Path_136" data-name="Path 136" d="M275.119,101.148a33.923,33.923,0,0,1,22.959,9.878l9.041,9.029a18.9,18.9,0,0,1,5.506,12.231,6.31,6.31,0,0,0,5.814,5.906,20.217,20.217,0,0,1,7.144,1.916,6.366,6.366,0,0,0,2.685.6,6.275,6.275,0,0,0,1.305-.135,64.187,64.187,0,0,1,13.488-1.54c38.356.362,69.617-31.034,69.617-69.372a68.514,68.514,0,0,0-8.388-32.487,6.317,6.317,0,0,0-5.26-3.332,6.394,6.394,0,0,0-5.555,2.8l-18.07,27.11a13.241,13.241,0,0,1-11.036,5.906h-3.116A29.37,29.37,0,0,1,333.847,51.1a13.34,13.34,0,0,1,.936-11.745l17.5-29.155c1.133-1.891.678-4.3-.357-6.257A7.207,7.207,0,0,0,346.2.535a20.559,20.559,0,0,0-2.895-.247,69.508,69.508,0,0,0-69.371,69.63A58.387,58.387,0,0,1,269.5,92.446a6.3,6.3,0,0,0,5.618,8.7Z" transform="translate(-112.679 -0.12)" fill="#707070"/>
        <path id="Path_137" data-name="Path 137" d="M130.883,316.711a18.989,18.989,0,0,1-10.938-5.118l-9.041-9.022a34.091,34.091,0,0,1-9.361-17.5A6.3,6.3,0,0,0,90.9,281.835L9.238,363.5a31.527,31.527,0,0,0,1.835,46.288A30.451,30.451,0,0,0,30.99,417a33.99,33.99,0,0,0,23.97-10.038L134.5,327.42a6.306,6.306,0,0,0-3.621-10.71Z" transform="translate(0 -117.157)" fill="#707070"/>
      </g>
    </g>
  </g>
</svg>
