<svg id="Group_320" data-name="Group 320" xmlns="http://www.w3.org/2000/svg" width="300" height="300" viewBox="0 0 300 300">
  <g id="Group_47" data-name="Group 47" transform="translate(0 0)">
    <path id="Path_27" data-name="Path 27" d="M930.753,624.425c-15.544-3.927-28.6-11.689-35.5-26.582a54.2,54.2,0,0,1-4.92-21.756q-.657-96.766-.361-193.539c.049-26.9,20.1-47.965,46.717-48.246,50.736-.537,101.48-.261,152.22-.306a11.429,11.429,0,0,1,2.069.414c-8.949,9.285-17.66,18.541-26.715,27.447-1.217,1.2-4.188.826-6.346.831-36.056.069-72.11.025-108.162.134-18.99.059-31.047,12.461-31.04,31.463q.034,85.092-.014,170.186c-.011,18.3,11.947,30.683,30.253,30.706q86.126.106,172.256-.055c18.2-.032,29.961-11.936,29.992-30.059.062-36.262-.043-72.524.26-108.783a16.194,16.194,0,0,1,3.965-9.806c7.567-8.374,15.735-16.206,24.648-25.237.223,3.268.464,5.121.464,6.975-.029,46.272-.75,92.555.108,138.811.535,28.909-11.4,48.651-40.169,57.4Z" transform="translate(-889.914 -324.425)" fill="#707070"/>
    <path id="Path_28" data-name="Path 28" d="M1130.938,370.513c-5.663,6.714-11.332,13.427-16.773,19.875l-48.435-46.726c5.365-4.729,9.9-8.932,14.654-12.862,6.19-5.119,12.026-5.479,17.835.065,11.194,10.687,21.845,21.94,32.719,32.96Z" transform="translate(-830.938 -326.832)" fill="#707070"/>
    <path id="Path_29" data-name="Path 29" d="M1030.615,492.8Q1007.7,469.451,986,447.337q49.841-50.355,100.484-101.521c14.992,15.189,30.14,30.538,44.286,44.871Z" transform="translate(-857.847 -320.425)" fill="#707070"/>
    <path id="Path_30" data-name="Path 30" d="M965.778,490.592c6.312-21.944,12.231-42.528,18.294-63.615l43.6,45.868C1008.9,478.231,988.137,484.183,965.778,490.592Z" transform="translate(-864.464 -293.305)" fill="#707070"/>
  </g>
</svg>
